<svg xmlns="http://www.w3.org/2000/svg" viewBox="0 0 640 360"><defs><linearGradient id="bg" x2="1" y2="1"><stop stop-color="#091622"/><stop offset="1" stop-color="#102b38"/></linearGradient><linearGradient id="line" x2="1"><stop stop-color="#70e8ff"/><stop offset="1" stop-color="#c57dff"/></linearGradient><pattern id="grid" width="36" height="36" patternUnits="userSpaceOnUse"><path d="M36 0H0v36" fill="none" stroke="#80eaff" stroke-opacity=".1"/></pattern></defs><rect width="640" height="360" fill="url(#bg)"/><rect width="640" height="360" fill="url(#grid)"/><circle cx="530" cy="55" r="95" fill="#43c4ff" opacity=".08"/><rect x="123" y="46" width="394" height="270" rx="22" fill="#0d182a" stroke="#65e8ff" stroke-opacity=".35" stroke-width="2"/><rect x="151" y="72" width="166" height="13" rx="6" fill="#75eaff"/><rect x="151" y="97" width="232" height="7" rx="3" fill="#8098b4" opacity=".55"/><path d="M166 265v-63h48v63m25 0v-92h48v92m25 0v-124h48v124m25 0v-72h48v72m25 0v-151h48v151" fill="#172f48" stroke="#6edfff" stroke-opacity=".5"/><path d="m170 179 75-26 65 18 70-48 72 7 55-65" fill="none" stroke="url(#line)" stroke-linecap="round" stroke-linejoin="round" stroke-width="7"/><circle cx="507" cy="65" r="8" fill="#ff70d0"/><circle cx="380" cy="123" r="8" fill="#75eaff"/><path d="M151 278h337" stroke="#6b83a4" stroke-opacity=".4" stroke-width="2"/></svg>
